<svg xmlns="http://www.w3.org/2000/svg" width="69" height="81" viewbox="0 0 69 81"><path d="M32.616 78.878L4.254 61.958c-1.518-.907-2.465-2.604-2.467-4.426l-.061-33.95c-.003-1.824.938-3.524 2.453-4.434l28.3-17.031a4.822 4.822 0 0 1 4.892-.009l28.363 16.921c1.516.905 2.463 2.601 2.466 4.424l.062 33.95c.003 1.823-.939 3.523-2.453 4.434L37.508 78.868a4.754 4.754 0 0 1-2.454.685 4.766 4.766 0 0 1-2.439-.675zm5.39.816l28.3-17.03c1.806-1.087 2.923-3.102 2.92-5.262l-.062-33.95c-.003-2.159-1.126-4.171-2.936-5.251L37.864 1.28a5.787 5.787 0 0 0-5.883.011l-28.3 17.03C1.874 19.407.757 21.422.761 23.583l.061 33.95c.002 2.158 1.125 4.17 2.937 5.252l28.362 16.92c.89.531 1.904.811 2.933.811a5.72 5.72 0 0 0 2.952-.824z" fill="<?php echo esc_attr( $fill ) ?>"/></svg>